<svg xmlns="http://www.w3.org/2000/svg" viewBox="0 0 64 64">
  <defs>
    <linearGradient id="g" x1="0" y1="0" x2="1" y2="1">
      <stop offset="0" stop-color="#6ee7ff" />
      <stop offset="0.55" stop-color="#a78bfa" />
      <stop offset="1" stop-color="#f472b6" />
    </linearGradient>
  </defs>
  <rect x="6" y="6" width="52" height="52" rx="14" fill="#0b1020" />
  <path
    d="M22 44V20h8.9c3.7 0 6.6.9 8.5 2.7 2 1.8 3 4.4 3 7.8 0 3.5-1 6.2-3 8.1-1.9 1.8-4.8 2.7-8.5 2.7H22zm6.5-5.2h2.9c2.1 0 3.7-.6 4.8-1.7 1.1-1.1 1.6-2.8 1.6-5 0-2.2-.5-3.8-1.6-4.9-1.1-1.1-2.7-1.6-4.8-1.6h-2.9v13.2z"
    fill="url(#g)"
  />
</svg>

